<svg version="1.1" xmlns="http://www.w3.org/2000/svg" viewBox="0 0 250 250"><desc>Created with Snap</desc><defs></defs><g transform="matrix(0.0515,0,0,0.0515,17.8082,143.6249)"><rect x="-346.11200256347655" y="-1037.312060546875" width="4858.88046875" height="1350.6560424804688" fill="#000000" style=""></rect><g><g transform="matrix(1.024,0,0,-1.024,0,0)"><path d="M608 -6Q547 -6 518 26Q490 59 490 107Q490 128 495 154Q500 181 505 206Q511 231 513 238Q521 273 528 307Q535 341 535 362Q535 413 499 413Q473 413 453 387Q433 362 421 321L353 0L209 0L282 345Q285 357 285 370Q285 414 255 414Q227 414 206 388Q186 363 174 321L106 0L-38 0L68 500L212 500L201 448Q252 505 323 505Q411 505 426 419Q481 504 565 504Q616 504 646 476Q676 448 676 391Q676 362 669 326Q662 291 649 240Q641 209 634 179Q628 150 628 133Q628 113 637 102Q646 91 668 91Q698 91 716 112Q734 134 752 179L794 179Q757 69 708 31Q660 -6 608 -6ZM851 -6Q803 -6 773 24Q744 54 744 114Q744 139 752 179L820 500L964 500L892 160Q889 145 889 132Q889 91 919 91Q947 91 967 114Q987 138 999 179L1067 500L1211 500L1139 160Q1135 145 1135 128Q1135 108 1144 99Q1154 91 1176 91Q1204 91 1224 115Q1245 139 1257 179L1299 179Q1262 71 1207 32Q1153 -6 1098 -6Q1055 -6 1029 18Q1004 42 999 89Q965 34 927 14Q890 -6 851 -6ZM1371 -6Q1323 -6 1290 12Q1257 31 1241 60Q1225 90 1225 122Q1225 155 1240 179Q1256 204 1278 215Q1317 285 1346 356Q1375 428 1401 511L1549 531Q1554 403 1566 254Q1571 194 1571 167Q1571 144 1567 129Q1614 156 1639 179L1681 179Q1617 105 1528 54Q1499 23 1456 8Q1414 -6 1371 -6ZM1339 73Q1376 73 1401 95Q1426 117 1426 166Q1426 196 1420 250Q1410 364 1407 403Q1383 324 1326 214Q1349 202 1349 179Q1349 160 1336 145Q1324 130 1305 130Q1284 130 1278 143Q1278 107 1292 90Q1307 73 1339 73ZM1806 554Q1773 554 1750 577Q1727 600 1727 633Q1727 666 1750 689Q1773 713 1806 713Q1839 713 1862 689Q1886 666 1886 633Q1886 600 1862 577Q1839 554 1806 554ZM1738 -6Q1690 -6 1660 24Q1631 54 1631 114Q1631 139 1639 179L1707 500L1851 500L1779 160Q1775 145 1775 128Q1775 108 1784 99Q1794 91 1816 91Q1845 91 1870 115Q1895 140 1906 179L1948 179Q1911 71 1853 32Q1795 -6 1738 -6ZM2514 -6Q2453 -6 2424 26Q2396 59 2396 107Q2396 128 2401 154Q2406 181 2411 206Q2417 231 2419 238Q2427 273 2434 307Q2441 341 2441 362Q2441 413 2405 413Q2379 413 2359 387Q2339 362 2327 321L2259 0L2115 0L2188 345Q2191 357 2191 370Q2191 414 2161 414Q2133 414 2112 388Q2092 363 2080 321L2012 0L1868 0L1974 500L2118 500L2107 448Q2158 505 2229 505Q2317 505 2332 419Q2387 504 2471 504Q2522 504 2552 476Q2582 448 2582 391Q2582 362 2575 326Q2568 291 2555 240Q2547 209 2540 179Q2534 150 2534 133Q2534 113 2543 102Q2552 91 2574 91Q2604 91 2622 112Q2640 134 2658 179L2700 179Q2663 69 2614 31Q2566 -6 2514 -6ZM2825 554Q2792 554 2769 577Q2746 600 2746 633Q2746 666 2769 689Q2792 713 2825 713Q2858 713 2881 689Q2905 666 2905 633Q2905 600 2881 577Q2858 554 2825 554ZM2757 -6Q2709 -6 2679 24Q2650 54 2650 114Q2650 139 2658 179L2726 500L2870 500L2798 160Q2794 145 2794 128Q2794 108 2803 99Q2813 91 2835 91Q2864 91 2889 115Q2914 140 2925 179L2967 179Q2930 71 2872 32Q2814 -6 2757 -6ZM3024 -6Q2976 -6 2946 24Q2917 54 2917 114Q2917 139 2925 179L3032 680L3180 700L3065 160Q3061 145 3061 128Q3061 108 3070 99Q3080 91 3102 91Q3131 91 3156 115Q3181 140 3192 179L3234 179Q3197 71 3139 32Q3081 -6 3024 -6ZM3312 -6Q3255 -6 3217 33Q3179 72 3179 155Q3179 229 3208 310Q3238 392 3296 448Q3355 505 3436 505Q3477 505 3497 491Q3517 477 3517 454L3517 447L3528 500L3672 500L3600 160Q3596 145 3596 128Q3596 85 3637 85Q3665 85 3685 111Q3706 137 3718 179L3760 179Q3723 71 3668 32Q3614 -6 3559 -6Q3517 -6 3491 17Q3466 41 3461 86Q3432 45 3396 19Q3361 -6 3312 -6ZM3377 91Q3402 91 3426 114Q3451 138 3460 179L3508 405Q3508 418 3498 430Q3488 443 3467 443Q3427 443 3395 396Q3363 350 3345 284Q3327 219 3327 169Q3327 119 3341 105Q3356 91 3377 91ZM3680 0L3786 500L3930 500L3917 438Q3951 468 3978 484Q4006 500 4038 500Q4070 500 4088 478Q4107 456 4107 425Q4107 396 4088 374Q4069 352 4035 352Q4013 352 4005 362Q3998 373 3994 393Q3991 406 3988 412Q3985 418 3977 418Q3956 418 3941 409Q3927 401 3904 380L3824 0L3680 0Z" fill="#ffffff" style=""></path></g></g></g></svg>